<svg width="51" height="54" viewBox="0 0 51 54" fill="none" xmlns="http://www.w3.org/2000/svg">
<path d="M20.0846 0.802151C18.7561 1.48597 8.04949 7.64031 3.55584 10.2974C1.48486 11.5088 0.722891 12.2707 0.273526 13.5211C0.0781504 14.0682 0.0195376 16.823 0.0195376 25.4586L0 36.6927L0.468902 37.6891C1.03549 38.92 1.58254 39.3694 4.74763 41.1864C7.09215 42.554 7.18983 42.5931 6.72093 41.9483C5.68544 40.6002 5.68544 40.6784 5.68544 28.5846C5.6659 17.6826 5.68544 17.331 6.07619 16.4713C6.81862 14.8497 6.03712 15.3577 18.5607 8.14829L26.6688 3.4788H28.2318H29.8144L27.2159 1.97441C23.3474 -0.272415 22.4292 -0.40918 20.0846 0.802151Z" fill="#DCF730"/>
<path d="M32.5301 6.76106C32.1002 6.91737 30.3809 7.8161 28.7202 8.79298C27.0595 9.75032 22.9762 12.1144 19.6353 14.029C16.3139 15.9437 13.2465 17.8193 12.8166 18.2101C11.3122 19.5973 11.3318 19.4605 11.3318 28.5846C11.3318 36.6731 11.3318 36.6927 11.8007 37.6695C12.3477 38.8809 13.1292 39.5647 15.1807 40.6979C16.0794 41.1863 16.8023 41.6161 16.8023 41.6747C16.8023 41.7334 15.8645 42.2999 14.7118 42.9447C12.6994 44.0583 12.5431 44.1169 11.2146 44.1169H9.84692L11.8007 45.2697C15.591 47.4579 16.4506 47.7509 17.9941 47.3406C18.463 47.2234 20.0455 46.4224 21.4913 45.5823C22.9371 44.7421 27.0791 42.3586 30.674 40.2876C34.2689 38.2361 37.5512 36.2238 37.9811 35.833C39.4855 34.4458 39.4659 34.5826 39.4659 25.4585C39.4659 17.37 39.4659 17.3504 38.997 16.3736C38.45 15.1622 37.6685 14.4784 35.617 13.3452C34.7183 12.8568 33.9954 12.427 33.9954 12.3684C33.9954 12.3097 34.9332 11.7432 36.0859 11.0984C38.0983 9.98477 38.2546 9.92616 39.5831 9.92616H40.9508L38.997 8.77344C35.1872 6.56569 34.1322 6.25309 32.5301 6.76106ZM33.7609 21.6487L33.8 30.2257L33.292 31.2612C33.0185 31.8278 32.5105 32.5116 32.1784 32.7656C31.8267 33.0196 28.4858 35.0124 24.7541 37.1811C20.3581 39.721 17.7987 41.0886 17.5252 41.0495L17.0954 40.9909L17.0368 32.3944L16.9977 23.8174L17.5057 22.7819C17.7792 22.2153 18.2872 21.5315 18.6193 21.2775C18.971 21.0235 22.2728 19.0307 25.985 16.8815C30.5763 14.2244 32.8817 12.974 33.2139 13.0131L33.7023 13.0522L33.7609 21.6487Z" fill="#DCF730"/>
<path d="M44.0768 12.095C45.1123 13.4431 45.1123 13.3649 45.1123 25.4587C45.1319 36.3607 45.1123 36.7123 44.7216 37.572C43.9791 39.1936 44.7606 38.6856 32.2371 45.895L24.129 50.5645H22.5659H20.9834L22.9372 51.6977C26.1413 53.5537 26.7665 53.8273 28.0365 53.9249C29.4627 54.0422 29.4041 54.0812 38.6845 48.7279C48.59 43.0034 49.2152 42.6127 49.7427 41.9289C50.7978 40.5417 50.7978 40.5808 50.7978 28.5065V17.3506L50.3289 16.3542C49.7623 15.1233 49.2152 14.6739 46.0501 12.8569C43.7056 11.4893 43.6079 11.4502 44.0768 12.095Z" fill="#DCF730"/>
</svg>
